<svg width="195" height="95" viewBox="0 0 195 95" fill="none" xmlns="http://www.w3.org/2000/svg">
<path d="M2.64569 73.9891C14.1273 83.8372 27.1404 95 52.3118 95C77.484 94.9997 90.4978 83.8372 101.98 73.9891C112.838 64.6758 122.216 56.6321 141.776 56.6321C161.336 56.6321 170.714 64.6758 181.572 73.9891C184.75 76.715 189.537 76.3489 192.263 73.1706C194.989 69.992 194.622 65.2058 191.444 62.4798C179.962 52.6316 166.948 41.4688 141.776 41.4688C116.604 41.4688 103.59 52.6312 92.1078 62.4798C81.2494 71.7931 71.8717 79.8368 52.3118 79.8368C32.7523 79.8368 23.3758 71.7934 12.5181 62.4798C9.33989 59.7538 4.55361 60.1196 1.82726 63.2982C-0.899097 66.4764 -0.532525 71.2631 2.64569 73.9891Z" fill="#5DEE9F"/>
<path d="M2.64569 32.5203C14.1269 42.3688 27.14 53.5312 52.3118 53.5312C77.484 53.5312 90.4978 42.3688 101.98 32.5203C112.838 23.207 122.216 15.1633 141.776 15.1633C161.335 15.1633 170.713 23.2066 181.572 32.5203C184.75 35.247 189.536 34.8797 192.262 31.7011C194.989 28.5229 194.621 23.7358 191.443 21.0102C179.961 11.1617 166.947 0 141.776 0C116.604 0 103.59 11.1624 92.1078 21.011C81.2494 30.3242 71.8717 38.368 52.3118 38.368C32.7527 38.368 23.3758 30.3246 12.5181 21.011C9.33989 18.2846 4.55323 18.6508 1.82726 21.8294C-0.899097 25.0076 -0.532525 29.7943 2.64569 32.5203Z" fill="#6875E5"/>
</svg>
